<svg id="visual" viewBox="0 0 1920 1080" width="1920" height="1080" xmlns="http://www.w3.org/2000/svg" xmlns:xlink="http://www.w3.org/1999/xlink" version="1.1"><rect x="0" y="0" width="1920" height="1080" fill="#252525"></rect><path d="M0 789L64 798.5C128 808 256 827 384 831.5C512 836 640 826 768 825.7C896 825.3 1024 834.7 1152 825C1280 815.3 1408 786.7 1536 774.7C1664 762.7 1792 767.3 1856 769.7L1920 772L1920 1081L1856 1081C1792 1081 1664 1081 1536 1081C1408 1081 1280 1081 1152 1081C1024 1081 896 1081 768 1081C640 1081 512 1081 384 1081C256 1081 128 1081 64 1081L0 1081Z" fill="#941f25"></path><path d="M0 835L64 842.7C128 850.3 256 865.7 384 874.2C512 882.7 640 884.3 768 870.2C896 856 1024 826 1152 812.7C1280 799.3 1408 802.7 1536 810.3C1664 818 1792 830 1856 836L1920 842L1920 1081L1856 1081C1792 1081 1664 1081 1536 1081C1408 1081 1280 1081 1152 1081C1024 1081 896 1081 768 1081C640 1081 512 1081 384 1081C256 1081 128 1081 64 1081L0 1081Z" fill="#782625"></path><path d="M0 891L64 890.3C128 889.7 256 888.3 384 896C512 903.7 640 920.3 768 926.2C896 932 1024 927 1152 915.8C1280 904.7 1408 887.3 1536 881.3C1664 875.3 1792 880.7 1856 883.3L1920 886L1920 1081L1856 1081C1792 1081 1664 1081 1536 1081C1408 1081 1280 1081 1152 1081C1024 1081 896 1081 768 1081C640 1081 512 1081 384 1081C256 1081 128 1081 64 1081L0 1081Z" fill="#5d2825"></path><path d="M0 969L64 965.7C128 962.3 256 955.7 384 958C512 960.3 640 971.7 768 974.8C896 978 1024 973 1152 971C1280 969 1408 970 1536 967.8C1664 965.7 1792 960.3 1856 957.7L1920 955L1920 1081L1856 1081C1792 1081 1664 1081 1536 1081C1408 1081 1280 1081 1152 1081C1024 1081 896 1081 768 1081C640 1081 512 1081 384 1081C256 1081 128 1081 64 1081L0 1081Z" fill="#422825"></path><path d="M0 980L64 986.5C128 993 256 1006 384 1010.5C512 1015 640 1011 768 1008.7C896 1006.3 1024 1005.7 1152 1010.3C1280 1015 1408 1025 1536 1024.5C1664 1024 1792 1013 1856 1007.5L1920 1002L1920 1081L1856 1081C1792 1081 1664 1081 1536 1081C1408 1081 1280 1081 1152 1081C1024 1081 896 1081 768 1081C640 1081 512 1081 384 1081C256 1081 128 1081 64 1081L0 1081Z" fill="#252525"></path></svg>